<svg viewBox="0 0 50 50" fill="none" xmlns="http://www.w3.org/2000/svg">
<path d="M401 0L432.454 41.4734L470.633 6.0921L494.408 52.3974L538.15 24.1833L553.523 73.9135L601.5 53.7238L608.004 105.368L658.758 93.8162L656.195 145.805L708.184 143.242L696.632 193.996L748.276 200.5L728.086 248.477L777.817 263.85L749.603 307.592L795.908 331.367L760.527 369.546L802 401L760.527 432.454L795.908 470.633L749.603 494.408L777.817 538.15L728.086 553.523L748.276 601.5L696.632 608.004L708.184 658.758L656.195 656.195L658.758 708.184L608.004 696.632L601.5 748.276L553.523 728.086L538.15 777.817L494.408 749.603L470.633 795.908L432.454 760.527L401 802L369.546 760.527L331.367 795.908L307.592 749.603L263.85 777.817L248.477 728.086L200.5 748.276L193.996 696.632L143.242 708.184L145.805 656.195L93.8162 658.758L105.368 608.004L53.7238 601.5L73.9135 553.523L24.1833 538.15L52.3974 494.408L6.0921 470.633L41.4734 432.454L0 401L41.4734 369.546L6.0921 331.367L52.3974 307.592L24.1833 263.85L73.9135 248.477L53.7238 200.5L105.368 193.996L93.8162 143.242L145.805 145.805L143.242 93.8162L193.996 105.368L200.5 53.7238L248.477 73.9135L263.85 24.1833L307.592 52.3974L331.367 6.0921L369.546 41.4734L401 0Z" fill="currentColor"/>
</svg>
