<svg width="100" height="100" viewBox="0 0 100 100" fill="none" xmlns="http://www.w3.org/2000/svg">
<path d="M50 100L55.4821 91.6407L62.941 98.2963L66.0727 88.8029L75 93.3013L75.568 83.3208L85.3553 85.3553L83.3208 75.568L93.3013 75L88.8029 66.0727L98.2963 62.941L91.6407 55.4821L100 50L91.6407 44.5179L98.2963 37.059L88.8029 33.9273L93.3013 25L83.3208 24.432L85.3553 14.6447L75.568 16.6792L75 6.69873L66.0727 11.1971L62.941 1.7037L55.4821 8.35931L50 0L44.5179 8.35931L37.059 1.7037L33.9273 11.1971L25 6.69873L24.432 16.6792L14.6447 14.6447L16.6792 24.432L6.69873 25L11.1971 33.9273L1.70371 37.059L8.35932 44.5179L0 50L8.35932 55.4821L1.70371 62.941L11.1971 66.0727L6.69873 75L16.6792 75.568L14.6447 85.3553L24.432 83.3208L25 93.3013L33.9273 88.8029L37.059 98.2963L44.5179 91.6407L50 100Z" fill="#FFFDF9"/>
</svg>
