<svg viewBox="0 0 372 69" fill="none" xmlns="http://www.w3.org/2000/svg">
  <path
    d="M29.5 0C30.3536 3.17016 32.8298 5.64644 36 6.5C32.8298 7.35356 30.3536 9.82984 29.5 13C28.6464 9.82984 26.1702 7.35356 23 6.5C26.1702 5.64644 28.6464 3.17016 29.5 0Z"
    fill="#2B2B2B" />
  <path
    d="M52.5 7C53.3536 10.1702 55.8298 12.6464 59 13.5C55.8298 14.3536 53.3536 16.8298 52.5 20C51.6464 16.8298 49.1702 14.3536 46 13.5C49.1702 12.6464 51.6464 10.1702 52.5 7Z"
    fill="#2B2B2B" />
  <path
    d="M174.5 21C175.354 24.1702 177.83 26.6464 181 27.5C177.83 28.3536 175.354 30.8298 174.5 34C173.646 30.8298 171.17 28.3536 168 27.5C171.17 26.6464 173.646 24.1702 174.5 21Z"
    fill="#2B2B2B" />
  <path
    d="M197.5 14C198.354 17.1702 200.83 19.6464 204 20.5C200.83 21.3536 198.354 23.8298 197.5 27C196.646 23.8298 194.17 21.3536 191 20.5C194.17 19.6464 196.646 17.1702 197.5 14Z"
    fill="#2B2B2B" />
  <path
    d="M220.5 7C221.354 10.1702 223.83 12.6464 227 13.5C223.83 14.3536 221.354 16.8298 220.5 20C219.646 16.8298 217.17 14.3536 214 13.5C217.17 12.6464 219.646 10.1702 220.5 7Z"
    fill="#2B2B2B" />
  <path
    d="M243.5 14C244.354 17.1702 246.83 19.6464 250 20.5C246.83 21.3536 244.354 23.8298 243.5 27C242.646 23.8298 240.17 21.3536 237 20.5C240.17 19.6464 242.646 17.1702 243.5 14Z"
    fill="#2B2B2B" />
  <path
    d="M342.5 7C343.354 10.1702 345.83 12.6464 349 13.5C345.83 14.3536 343.354 16.8298 342.5 20C341.646 16.8298 339.17 14.3536 336 13.5C339.17 12.6464 341.646 10.1702 342.5 7Z"
    fill="#2B2B2B" />
  <path
    d="M365.5 14C366.354 17.1702 368.83 19.6464 372 20.5C368.83 21.3536 366.354 23.8298 365.5 27C364.646 23.8298 362.17 21.3536 359 20.5C362.17 19.6464 364.646 17.1702 365.5 14Z"
    fill="#2B2B2B" />
  <path
    d="M1.50392 55.5C3.73631 54.5218 5.52179 52.7363 6.5 50.5039C7.47821 52.7363 9.26369 54.5218 11.4961 55.5C9.26369 56.4782 7.47821 58.2637 6.5 60.4961C5.52179 58.2637 3.73631 56.4782 1.50392 55.5Z"
    fill="#FFFDF9" stroke="#2B2B2B" />
  <path
    d="M146.504 62.5C148.736 61.5218 150.522 59.7363 151.5 57.5039C152.478 59.7363 154.264 61.5218 156.496 62.5C154.264 63.4782 152.478 65.2637 151.5 67.4961C150.522 65.2637 148.736 63.4782 146.504 62.5Z"
    fill="#FFFDF9" stroke="#2B2B2B" />
  <path
    d="M314.504 41.5C316.736 40.5218 318.522 38.7363 319.5 36.5039C320.478 38.7363 322.264 40.5218 324.496 41.5C322.264 42.4782 320.478 44.2637 319.5 46.4961C318.522 44.2637 316.736 42.4782 314.504 41.5Z"
    fill="#FFFDF9" stroke="#2B2B2B" />
  <path
    d="M1.50392 34.5C3.73631 33.5218 5.52179 31.7363 6.5 29.5039C7.47821 31.7363 9.26369 33.5218 11.4961 34.5C9.26369 35.4782 7.47821 37.2637 6.5 39.4961C5.52179 37.2637 3.73631 35.4782 1.50392 34.5Z"
    fill="#FFFDF9" stroke="#2B2B2B" />
  <path
    d="M146.504 41.5C148.736 40.5218 150.522 38.7363 151.5 36.5039C152.478 38.7363 154.264 40.5218 156.496 41.5C154.264 42.4782 152.478 44.2637 151.5 46.4961C150.522 44.2637 148.736 42.4782 146.504 41.5Z"
    fill="#FFFDF9" stroke="#2B2B2B" />
  <path
    d="M314.504 20.5C316.736 19.5218 318.522 17.7363 319.5 15.5039C320.478 17.7363 322.264 19.5218 324.496 20.5C322.264 21.4782 320.478 23.2637 319.5 25.4961C318.522 23.2637 316.736 21.4782 314.504 20.5Z"
    fill="#FFFDF9" stroke="#2B2B2B" />
  <path
    d="M1.50392 20.5C3.73631 19.5218 5.52179 17.7363 6.5 15.5039C7.47821 17.7363 9.26369 19.5218 11.4961 20.5C9.26369 21.4782 7.47821 23.2637 6.5 25.4961C5.52179 23.2637 3.73631 21.4782 1.50392 20.5Z"
    fill="#FFFDF9" stroke="#2B2B2B" />
  <path
    d="M146.504 27.5C148.736 26.5218 150.522 24.7363 151.5 22.5039C152.478 24.7363 154.264 26.5218 156.496 27.5C154.264 28.4782 152.478 30.2637 151.5 32.4961C150.522 30.2637 148.736 28.4782 146.504 27.5Z"
    fill="#FFFDF9" stroke="#2B2B2B" />
  <path
    d="M314.504 6.5C316.736 5.52179 318.522 3.73631 319.5 1.50392C320.478 3.73631 322.264 5.52179 324.496 6.5C322.264 7.47821 320.478 9.26369 319.5 11.4961C318.522 9.26369 316.736 7.47821 314.504 6.5Z"
    fill="#FFFDF9" stroke="#2B2B2B" />
  <path
    d="M261.504 27.5C263.736 26.5218 265.522 24.7363 266.5 22.5039C267.478 24.7363 269.264 26.5218 271.496 27.5C269.264 28.4782 267.478 30.2637 266.5 32.4961C265.522 30.2637 263.736 28.4782 261.504 27.5Z"
    fill="#FFFDF9" stroke="#2B2B2B" />
  <path
    d="M70.5039 20.5C72.7363 19.5218 74.5218 17.7363 75.5 15.5039C76.4782 17.7363 78.2637 19.5218 80.4961 20.5C78.2637 21.4782 76.4782 23.2637 75.5 25.4961C74.5218 23.2637 72.7363 21.4782 70.5039 20.5Z"
    fill="#FFFDF9" stroke="#2B2B2B" />
  <path
    d="M93.5039 27.5C95.7363 26.5218 97.5218 24.7363 98.5 22.5039C99.4782 24.7363 101.264 26.5218 103.496 27.5C101.264 28.4782 99.4782 30.2637 98.5 32.4961C97.5218 30.2637 95.7363 28.4782 93.5039 27.5Z"
    fill="#FFFDF9" stroke="#2B2B2B" />
</svg>