<svg viewBox="0 0 980 76" fill="none" xmlns="http://www.w3.org/2000/svg">
  <path
    d="M29.5 0V0C30.3536 3.17016 32.8298 5.64644 36 6.5V6.5V6.5C32.8298 7.35356 30.3536 9.82984 29.5 13V13V13C28.6464 9.82984 26.1702 7.35356 23 6.5V6.5V6.5C26.1702 5.64644 28.6464 3.17016 29.5 0V0Z"
    fill="#2B2B2B" />
  <path
    d="M52.5 7V7C53.3536 10.1702 55.8298 12.6464 59 13.5V13.5V13.5C55.8298 14.3536 53.3536 16.8298 52.5 20V20V20C51.6464 16.8298 49.1702 14.3536 46 13.5V13.5V13.5C49.1702 12.6464 51.6464 10.1702 52.5 7V7Z"
    fill="#2B2B2B" />
  <path
    d="M174.5 21V21C175.354 24.1702 177.83 26.6464 181 27.5V27.5V27.5C177.83 28.3536 175.354 30.8298 174.5 34V34V34C173.646 30.8298 171.17 28.3536 168 27.5V27.5V27.5C171.17 26.6464 173.646 24.1702 174.5 21V21Z"
    fill="#2B2B2B" />
  <path
    d="M197.5 14V14C198.354 17.1702 200.83 19.6464 204 20.5V20.5V20.5C200.83 21.3536 198.354 23.8298 197.5 27V27V27C196.646 23.8298 194.17 21.3536 191 20.5V20.5V20.5C194.17 19.6464 196.646 17.1702 197.5 14V14Z"
    fill="#2B2B2B" />
  <path
    d="M220.5 7V7C221.354 10.1702 223.83 12.6464 227 13.5V13.5V13.5C223.83 14.3536 221.354 16.8298 220.5 20V20V20C219.646 16.8298 217.17 14.3536 214 13.5V13.5V13.5C217.17 12.6464 219.646 10.1702 220.5 7V7Z"
    fill="#2B2B2B" />
  <path
    d="M243.5 14V14C244.354 17.1702 246.83 19.6464 250 20.5V20.5V20.5C246.83 21.3536 244.354 23.8298 243.5 27V27V27C242.646 23.8298 240.17 21.3536 237 20.5V20.5V20.5C240.17 19.6464 242.646 17.1702 243.5 14V14Z"
    fill="#2B2B2B" />
  <path
    d="M342.5 7V7C343.354 10.1702 345.83 12.6464 349 13.5V13.5V13.5C345.83 14.3536 343.354 16.8298 342.5 20V20V20C341.646 16.8298 339.17 14.3536 336 13.5V13.5V13.5C339.17 12.6464 341.646 10.1702 342.5 7V7Z"
    fill="#2B2B2B" />
  <path
    d="M503.5 35V35C504.354 38.1702 506.83 40.6464 510 41.5V41.5V41.5C506.83 42.3536 504.354 44.8298 503.5 48V48V48C502.646 44.8298 500.17 42.3536 497 41.5V41.5V41.5C500.17 40.6464 502.646 38.1702 503.5 35V35Z"
    fill="#2B2B2B" />
  <path
    d="M503.5 49V49C504.354 52.1702 506.83 54.6464 510 55.5V55.5V55.5C506.83 56.3536 504.354 58.8298 503.5 62V62V62C502.646 58.8298 500.17 56.3536 497 55.5V55.5V55.5C500.17 54.6464 502.646 52.1702 503.5 49V49Z"
    fill="#2B2B2B" />
  <path
    d="M503.5 21V21C504.354 24.1702 506.83 26.6464 510 27.5V27.5V27.5C506.83 28.3536 504.354 30.8298 503.5 34V34V34C502.646 30.8298 500.17 28.3536 497 27.5V27.5V27.5C500.17 26.6464 502.646 24.1702 503.5 21V21Z"
    fill="#2B2B2B" />
  <path
    d="M365.5 14V14C366.354 17.1702 368.83 19.6464 372 20.5V20.5V20.5C368.83 21.3536 366.354 23.8298 365.5 27V27V27C364.646 23.8298 362.17 21.3536 359 20.5V20.5V20.5C362.17 19.6464 364.646 17.1702 365.5 14V14Z"
    fill="#2B2B2B" />
  <path
    d="M411.5 28V28C412.354 31.1702 414.83 33.6464 418 34.5V34.5V34.5C414.83 35.3536 412.354 37.8298 411.5 41V41V41C410.646 37.8298 408.17 35.3536 405 34.5V34.5V34.5C408.17 33.6464 410.646 31.1702 411.5 28V28Z"
    fill="#2B2B2B" />
  <path
    d="M434.5 35V35C435.354 38.1702 437.83 40.6464 441 41.5V41.5V41.5C437.83 42.3536 435.354 44.8298 434.5 48V48V48C433.646 44.8298 431.17 42.3536 428 41.5V41.5V41.5C431.17 40.6464 433.646 38.1702 434.5 35V35Z"
    fill="#2B2B2B" />
  <path
    d="M6.5 50.5039C7.47821 52.7363 9.26369 54.5218 11.4961 55.5C9.26369 56.4782 7.47821 58.2637 6.5 60.4961C5.52179 58.2637 3.73631 56.4782 1.50392 55.5C3.73631 54.5218 5.52179 52.7363 6.5 50.5039Z"
    fill="#FFFDF9" stroke="#2B2B2B" />
  <path
    d="M151.5 57.5039C152.478 59.7363 154.264 61.5218 156.496 62.5C154.264 63.4782 152.478 65.2637 151.5 67.4961C150.522 65.2637 148.736 63.4782 146.504 62.5C148.736 61.5218 150.522 59.7363 151.5 57.5039Z"
    fill="#FFFDF9" stroke="#2B2B2B" />
  <path
    d="M319.5 36.5039C320.478 38.7363 322.264 40.5218 324.496 41.5C322.264 42.4782 320.478 44.2637 319.5 46.4961C318.522 44.2637 316.736 42.4782 314.504 41.5C316.736 40.5218 318.522 38.7363 319.5 36.5039Z"
    fill="#FFFDF9" stroke="#2B2B2B" />
  <path
    d="M388.5 57.5039C389.478 59.7363 391.264 61.5218 393.496 62.5C391.264 63.4782 389.478 65.2637 388.5 67.4961C387.522 65.2637 385.736 63.4782 383.504 62.5C385.736 61.5218 387.522 59.7363 388.5 57.5039Z"
    fill="#FFFDF9" stroke="#2B2B2B" />
  <path
    d="M457.5 64.5039C458.478 66.7363 460.264 68.5218 462.496 69.5C460.264 70.4782 458.478 72.2637 457.5 74.4961C456.522 72.2637 454.736 70.4782 452.504 69.5C454.736 68.5218 456.522 66.7363 457.5 64.5039Z"
    fill="#FFFDF9" stroke="#2B2B2B" />
  <path
    d="M6.5 29.5039C7.47821 31.7363 9.26369 33.5218 11.4961 34.5C9.26369 35.4782 7.47821 37.2637 6.5 39.4961C5.52179 37.2637 3.73631 35.4782 1.50392 34.5C3.73631 33.5218 5.52179 31.7363 6.5 29.5039Z"
    fill="#FFFDF9" stroke="#2B2B2B" />
  <path
    d="M151.5 36.5039C152.478 38.7363 154.264 40.5218 156.496 41.5C154.264 42.4782 152.478 44.2637 151.5 46.4961C150.522 44.2637 148.736 42.4782 146.504 41.5C148.736 40.5218 150.522 38.7363 151.5 36.5039Z"
    fill="#FFFDF9" stroke="#2B2B2B" />
  <path
    d="M319.5 15.5039C320.478 17.7363 322.264 19.5218 324.496 20.5C322.264 21.4782 320.478 23.2637 319.5 25.4961C318.522 23.2637 316.736 21.4782 314.504 20.5C316.736 19.5218 318.522 17.7363 319.5 15.5039Z"
    fill="#FFFDF9" stroke="#2B2B2B" />
  <path
    d="M388.5 36.5039C389.478 38.7363 391.264 40.5218 393.496 41.5C391.264 42.4782 389.478 44.2637 388.5 46.4961C387.522 44.2637 385.736 42.4782 383.504 41.5C385.736 40.5218 387.522 38.7363 388.5 36.5039Z"
    fill="#FFFDF9" stroke="#2B2B2B" />
  <path
    d="M457.5 43.5039C458.478 45.7363 460.264 47.5218 462.496 48.5C460.264 49.4782 458.478 51.2637 457.5 53.4961C456.522 51.2637 454.736 49.4782 452.504 48.5C454.736 47.5218 456.522 45.7363 457.5 43.5039Z"
    fill="#FFFDF9" stroke="#2B2B2B" />
  <path
    d="M480.5 43.5039C481.478 45.7363 483.264 47.5218 485.496 48.5C483.264 49.4782 481.478 51.2637 480.5 53.4961C479.522 51.2637 477.736 49.4782 475.504 48.5C477.736 47.5218 479.522 45.7363 480.5 43.5039Z"
    fill="#FFFDF9" stroke="#2B2B2B" />
  <path
    d="M6.5 15.5039C7.47821 17.7363 9.26369 19.5218 11.4961 20.5C9.26369 21.4782 7.47821 23.2637 6.5 25.4961C5.52179 23.2637 3.73631 21.4782 1.50392 20.5C3.73631 19.5218 5.52179 17.7363 6.5 15.5039Z"
    fill="#FFFDF9" stroke="#2B2B2B" />
  <path
    d="M151.5 22.5039C152.478 24.7363 154.264 26.5218 156.496 27.5C154.264 28.4782 152.478 30.2637 151.5 32.4961C150.522 30.2637 148.736 28.4782 146.504 27.5C148.736 26.5218 150.522 24.7363 151.5 22.5039Z"
    fill="#FFFDF9" stroke="#2B2B2B" />
  <path
    d="M319.5 1.50392C320.478 3.73631 322.264 5.52179 324.496 6.5C322.264 7.47821 320.478 9.26369 319.5 11.4961C318.522 9.26369 316.736 7.47821 314.504 6.5C316.736 5.52179 318.522 3.73631 319.5 1.50392Z"
    fill="#FFFDF9" stroke="#2B2B2B" />
  <path
    d="M388.5 22.5039C389.478 24.7363 391.264 26.5218 393.496 27.5C391.264 28.4782 389.478 30.2637 388.5 32.4961C387.522 30.2637 385.736 28.4782 383.504 27.5C385.736 26.5218 387.522 24.7363 388.5 22.5039Z"
    fill="#FFFDF9" stroke="#2B2B2B" />
  <path
    d="M457.5 29.5039C458.478 31.7363 460.264 33.5218 462.496 34.5C460.264 35.4782 458.478 37.2637 457.5 39.4961C456.522 37.2637 454.736 35.4782 452.504 34.5C454.736 33.5218 456.522 31.7363 457.5 29.5039Z"
    fill="#FFFDF9" stroke="#2B2B2B" />
  <path
    d="M266.5 22.5039C267.478 24.7363 269.264 26.5218 271.496 27.5C269.264 28.4782 267.478 30.2637 266.5 32.4961C265.522 30.2637 263.736 28.4782 261.504 27.5C263.736 26.5218 265.522 24.7363 266.5 22.5039Z"
    fill="#FFFDF9" stroke="#2B2B2B" />
  <path
    d="M75.5 15.5039C76.4782 17.7363 78.2637 19.5218 80.4961 20.5C78.2637 21.4782 76.4782 23.2637 75.5 25.4961C74.5218 23.2637 72.7363 21.4782 70.5039 20.5C72.7363 19.5218 74.5218 17.7363 75.5 15.5039Z"
    fill="#FFFDF9" stroke="#2B2B2B" />
  <path
    d="M98.5 22.5039C99.4782 24.7363 101.264 26.5218 103.496 27.5C101.264 28.4782 99.4782 30.2637 98.5 32.4961C97.5218 30.2637 95.7363 28.4782 93.5039 27.5C95.7363 26.5218 97.5218 24.7363 98.5 22.5039Z"
    fill="#FFFDF9" stroke="#2B2B2B" />
  <path
    d="M568.5 0V0C569.354 3.17016 571.83 5.64644 575 6.5V6.5V6.5C571.83 7.35356 569.354 9.82984 568.5 13V13V13C567.646 9.82984 565.17 7.35356 562 6.5V6.5V6.5C565.17 5.64644 567.646 3.17016 568.5 0V0Z"
    fill="#2B2B2B" />
  <path
    d="M591.5 7V7C592.354 10.1702 594.83 12.6464 598 13.5V13.5V13.5C594.83 14.3536 592.354 16.8298 591.5 20V20V20C590.646 16.8298 588.17 14.3536 585 13.5V13.5V13.5C588.17 12.6464 590.646 10.1702 591.5 7V7Z"
    fill="#2B2B2B" />
  <path
    d="M713.5 21V21C714.354 24.1702 716.83 26.6464 720 27.5V27.5V27.5C716.83 28.3536 714.354 30.8298 713.5 34V34V34C712.646 30.8298 710.17 28.3536 707 27.5V27.5V27.5C710.17 26.6464 712.646 24.1702 713.5 21V21Z"
    fill="#2B2B2B" />
  <path
    d="M736.5 14V14C737.354 17.1702 739.83 19.6464 743 20.5V20.5V20.5C739.83 21.3536 737.354 23.8298 736.5 27V27V27C735.646 23.8298 733.17 21.3536 730 20.5V20.5V20.5C733.17 19.6464 735.646 17.1702 736.5 14V14Z"
    fill="#2B2B2B" />
  <path
    d="M759.5 7V7C760.354 10.1702 762.83 12.6464 766 13.5V13.5V13.5C762.83 14.3536 760.354 16.8298 759.5 20V20V20C758.646 16.8298 756.17 14.3536 753 13.5V13.5V13.5C756.17 12.6464 758.646 10.1702 759.5 7V7Z"
    fill="#2B2B2B" />
  <path
    d="M782.5 14V14C783.354 17.1702 785.83 19.6464 789 20.5V20.5V20.5C785.83 21.3536 783.354 23.8298 782.5 27V27V27C781.646 23.8298 779.17 21.3536 776 20.5V20.5V20.5C779.17 19.6464 781.646 17.1702 782.5 14V14Z"
    fill="#2B2B2B" />
  <path
    d="M881.5 7V7C882.354 10.1702 884.83 12.6464 888 13.5V13.5V13.5C884.83 14.3536 882.354 16.8298 881.5 20V20V20C880.646 16.8298 878.17 14.3536 875 13.5V13.5V13.5C878.17 12.6464 880.646 10.1702 881.5 7V7Z"
    fill="#2B2B2B" />
  <path
    d="M904.5 14V14C905.354 17.1702 907.83 19.6464 911 20.5V20.5V20.5C907.83 21.3536 905.354 23.8298 904.5 27V27V27C903.646 23.8298 901.17 21.3536 898 20.5V20.5V20.5C901.17 19.6464 903.646 17.1702 904.5 14V14Z"
    fill="#2B2B2B" />
  <path
    d="M950.5 28V28C951.354 31.1702 953.83 33.6464 957 34.5V34.5V34.5C953.83 35.3536 951.354 37.8298 950.5 41V41V41C949.646 37.8298 947.17 35.3536 944 34.5V34.5V34.5C947.17 33.6464 949.646 31.1702 950.5 28V28Z"
    fill="#2B2B2B" />
  <path
    d="M973.5 35V35C974.354 38.1702 976.83 40.6464 980 41.5V41.5V41.5C976.83 42.3536 974.354 44.8298 973.5 48V48V48C972.646 44.8298 970.17 42.3536 967 41.5V41.5V41.5C970.17 40.6464 972.646 38.1702 973.5 35V35Z"
    fill="#2B2B2B" />
  <path
    d="M545.5 50.5039C546.478 52.7363 548.264 54.5218 550.496 55.5C548.264 56.4782 546.478 58.2637 545.5 60.4961C544.522 58.2637 542.736 56.4782 540.504 55.5C542.736 54.5218 544.522 52.7363 545.5 50.5039Z"
    fill="#FFFDF9" stroke="#2B2B2B" />
  <path
    d="M690.5 57.5039C691.478 59.7363 693.264 61.5218 695.496 62.5C693.264 63.4782 691.478 65.2637 690.5 67.4961C689.522 65.2637 687.736 63.4782 685.504 62.5C687.736 61.5218 689.522 59.7363 690.5 57.5039Z"
    fill="#FFFDF9" stroke="#2B2B2B" />
  <path
    d="M858.5 36.5039C859.478 38.7363 861.264 40.5218 863.496 41.5C861.264 42.4782 859.478 44.2637 858.5 46.4961C857.522 44.2637 855.736 42.4782 853.504 41.5C855.736 40.5218 857.522 38.7363 858.5 36.5039Z"
    fill="#FFFDF9" stroke="#2B2B2B" />
  <path
    d="M927.5 57.5039C928.478 59.7363 930.264 61.5218 932.496 62.5C930.264 63.4782 928.478 65.2637 927.5 67.4961C926.522 65.2637 924.736 63.4782 922.504 62.5C924.736 61.5218 926.522 59.7363 927.5 57.5039Z"
    fill="#FFFDF9" stroke="#2B2B2B" />
  <path
    d="M545.5 29.5039C546.478 31.7363 548.264 33.5218 550.496 34.5C548.264 35.4782 546.478 37.2637 545.5 39.4961C544.522 37.2637 542.736 35.4782 540.504 34.5C542.736 33.5218 544.522 31.7363 545.5 29.5039Z"
    fill="#FFFDF9" stroke="#2B2B2B" />
  <path
    d="M690.5 36.5039C691.478 38.7363 693.264 40.5218 695.496 41.5C693.264 42.4782 691.478 44.2637 690.5 46.4961C689.522 44.2637 687.736 42.4782 685.504 41.5C687.736 40.5218 689.522 38.7363 690.5 36.5039Z"
    fill="#FFFDF9" stroke="#2B2B2B" />
  <path
    d="M858.5 15.5039C859.478 17.7363 861.264 19.5218 863.496 20.5C861.264 21.4782 859.478 23.2637 858.5 25.4961C857.522 23.2637 855.736 21.4782 853.504 20.5C855.736 19.5218 857.522 17.7363 858.5 15.5039Z"
    fill="#FFFDF9" stroke="#2B2B2B" />
  <path
    d="M927.5 36.5039C928.478 38.7363 930.264 40.5218 932.496 41.5C930.264 42.4782 928.478 44.2637 927.5 46.4961C926.522 44.2637 924.736 42.4782 922.504 41.5C924.736 40.5218 926.522 38.7363 927.5 36.5039Z"
    fill="#FFFDF9" stroke="#2B2B2B" />
  <path
    d="M545.5 15.5039C546.478 17.7363 548.264 19.5218 550.496 20.5C548.264 21.4782 546.478 23.2637 545.5 25.4961C544.522 23.2637 542.736 21.4782 540.504 20.5C542.736 19.5218 544.522 17.7363 545.5 15.5039Z"
    fill="#FFFDF9" stroke="#2B2B2B" />
  <path
    d="M690.5 22.5039C691.478 24.7363 693.264 26.5218 695.496 27.5C693.264 28.4782 691.478 30.2637 690.5 32.4961C689.522 30.2637 687.736 28.4782 685.504 27.5C687.736 26.5218 689.522 24.7363 690.5 22.5039Z"
    fill="#FFFDF9" stroke="#2B2B2B" />
  <path
    d="M858.5 1.50392C859.478 3.73631 861.264 5.52179 863.496 6.5C861.264 7.47821 859.478 9.26369 858.5 11.4961C857.522 9.26369 855.736 7.47821 853.504 6.5C855.736 5.52179 857.522 3.73631 858.5 1.50392Z"
    fill="#FFFDF9" stroke="#2B2B2B" />
  <path
    d="M927.5 22.5039C928.478 24.7363 930.264 26.5218 932.496 27.5C930.264 28.4782 928.478 30.2637 927.5 32.4961C926.522 30.2637 924.736 28.4782 922.504 27.5C924.736 26.5218 926.522 24.7363 927.5 22.5039Z"
    fill="#FFFDF9" stroke="#2B2B2B" />
  <path
    d="M805.5 22.5039C806.478 24.7363 808.264 26.5218 810.496 27.5C808.264 28.4782 806.478 30.2637 805.5 32.4961C804.522 30.2637 802.736 28.4782 800.504 27.5C802.736 26.5218 804.522 24.7363 805.5 22.5039Z"
    fill="#FFFDF9" stroke="#2B2B2B" />
  <path
    d="M614.5 15.5039C615.478 17.7363 617.264 19.5218 619.496 20.5C617.264 21.4782 615.478 23.2637 614.5 25.4961C613.522 23.2637 611.736 21.4782 609.504 20.5C611.736 19.5218 613.522 17.7363 614.5 15.5039Z"
    fill="#FFFDF9" stroke="#2B2B2B" />
  <path
    d="M637.5 22.5039C638.478 24.7363 640.264 26.5218 642.496 27.5C640.264 28.4782 638.478 30.2637 637.5 32.4961C636.522 30.2637 634.736 28.4782 632.504 27.5C634.736 26.5218 636.522 24.7363 637.5 22.5039Z"
    fill="#FFFDF9" stroke="#2B2B2B" />
</svg>